Jump_normalized_Motion_pl06
version=1
nRows=10
nColumns=43
inDegrees=yes
endheader
time		pelvis_tilt		pelvis_list		pelvis_rotation		pelvis_tx		pelvis_ty		pelvis_tz		hip_flexion_r		hip_adduction_r		hip_rotation_r		knee_angle_r		ankle_angle_r		subtalar_angle_r		mtp_angle_r		hip_flexion_l		hip_adduction_l		hip_rotation_l		knee_angle_l		ankle_angle_l		subtalar_angle_l		mtp_angle_l		lumbar_extension		lumbar_bending		lumbar_rotation		neck_flexion		neck_lateral_bending		neck_rotation		arm_flex_r		arm_add_r		arm_rot_r		elbow_flex_r		pro_sup_r		wrist_flex_r		wrist_dev_r		hand_finger_flex_r		arm_flex_l		arm_add_l		arm_rot_l		elbow_flex_l		pro_sup_l		wrist_flex_l		wrist_dev_l		hand_finger_flex_l		
0.514167		-0.282094		-25.215095		94.567288		-0.012251		1.830619		1.673629		60.214102		-10.096381		7.735293		-118.669675		20.228550		-3.732242		2.001574		61.082360		3.541934		11.318215		-119.937353		26.461507		-5.852804		11.125730		-38.189364		1.523983		-0.969662		30.118458		2.349065		-3.796164		135.546415		-9.491077		33.157036		55.660347		65.000669		-30.291162		-2.650969		43.392477		133.674836		-0.136278		21.772113		59.999457		106.657195		-24.208667		11.460625		90.000210		
0.517071		-0.299173		-25.225479		94.548732		-0.012576		1.832297		1.667927		59.699973		-10.155910		7.739069		-118.313005		19.464494		-3.396763		2.077044		60.515206		3.583321		11.405905		-119.619738		25.840353		-5.598038		11.107443		-37.893906		1.505479		-0.928718		29.595228		2.370624		-3.794180		135.554330		-9.437070		33.064494		55.662302		64.981052		-30.256424		-2.716872		43.425596		133.660022		-0.084340		21.706043		60.046653		106.770824		-24.191487		11.461185		90.000210		
0.519975		-0.317744		-25.170603		94.561072		-0.012977		1.834118		1.662147		59.118461		-10.236247		7.746160		-117.961773		18.680069		-3.055372		2.168916		59.885252		3.640606		11.498825		-119.262973		25.210184		-5.329190		11.099884		-37.686314		1.502327		-0.896916		29.083360		2.386145		-3.782858		135.579520		-9.385754		32.919647		55.630398		64.954073		-30.225748		-2.810601		43.461512		133.640539		0.003541		21.633609		60.112494		106.903234		-24.195141		11.443187		90.000210		
0.522879		-0.375504		-24.625717		94.654512		-0.013550		1.836870		1.655812		57.909318		-10.455342		7.634272		-117.511167		17.853512		-2.716003		2.909960		58.666476		3.784978		11.643769		-118.853814		24.638241		-5.076932		11.322939		-38.064613		1.576348		-1.005308		28.801821		2.393798		-3.733805		135.673839		-9.182473		32.645295		55.421741		64.965117		-30.076228		-3.151641		43.595671		133.716322		0.134121		21.379008		60.052960		107.445792		-24.243147		11.329878		90.000210		
0.525783		-0.382071		-24.595976		94.635316		-0.013873		1.838502		1.649939		57.404206		-10.512134		7.639773		-117.174993		17.020664		-2.384244		2.997512		58.112390		3.798824		11.734522		-118.543652		23.886379		-4.786654		11.314788		-37.791459		1.556005		-0.927079		28.185610		2.431597		-3.742663		135.648214		-9.219349		32.660109		55.439433		64.981530		-30.044677		-3.176958		43.629750		133.628536		0.147275		21.437941		60.142645		107.514068		-24.214299		11.320626		90.000210		
0.528687		-0.394215		-24.450593		94.620753		-0.014204		1.840314		1.643970		56.791750		-10.601172		7.618863		-116.824383		16.060792		-2.024309		3.114403		57.449770		3.821609		11.838328		-118.237949		23.084159		-4.476826		11.325362		-37.657089		1.549338		-0.884955		27.622679		2.452004		-3.752693		135.616181		-9.179788		32.591439		55.401099		64.994303		-30.044271		-3.244156		43.655270		133.559307		0.192999		21.401331		60.155526		107.596776		-24.231358		11.298198		90.000210		
0.531591		-0.408233		-23.848794		94.659698		-0.014581		1.843003		1.637469		55.584217		-10.726108		7.479867		-116.372450		15.069349		-1.834841		4.040367		56.229922		3.844965		11.973372		-117.850303		22.299277		-4.283244		11.691727		-38.070774		1.603768		-0.882116		27.214636		2.475634		-3.743120		135.691136		-9.103165		32.512489		55.247793		65.184386		-29.977473		-3.485363		43.757710		133.583425		0.244153		21.365505		60.125744		107.913116		-24.309111		11.134835		90.000210		
0.534495		-0.405069		-23.529881		94.649625		-0.014843		1.845044		1.631293		54.794316		-10.814605		7.400803		-115.995605		14.011323		-1.548265		4.570446		55.401256		3.817999		12.069494		-117.528866		21.425241		-4.035574		11.887680		-38.143594		1.610771		-0.812551		26.703098		2.489358		-3.747301		135.689133		-9.066588		32.439779		55.151961		65.288854		-29.961565		-3.606314		43.811407		133.536931		0.298093		21.365717		60.101194		108.060553		-24.344080		11.057084		90.000210		
0.537399		-0.396592		-23.411556		94.576456		-0.014923		1.846655		1.625307		54.309476		-10.835041		7.380301		-115.660989		12.882631		-1.206033		4.630797		54.847793		3.752499		12.140788		-117.265676		20.456473		-3.757294		11.879067		-37.966929		1.562806		-0.723341		26.074288		2.516108		-3.773617		135.591256		-9.051682		32.393415		55.129333		65.329415		-29.996273		-3.634176		43.815776		133.409297		0.318779		21.383314		60.099192		108.063378		-24.358523		11.046969		90.000210		
0.540303		-0.386701		-23.125758		94.477534		-0.014932		1.848519		1.619121		53.640328		-10.822438		7.328138		-115.298978		11.643557		-1.001806		4.817170		54.113969		3.658304		12.182882		-116.974357		19.422385		-3.604731		11.924925		-37.987545		1.511858		-0.598862		25.498188		2.537855		-3.798490		135.501728		-9.020757		32.328025		55.080220		65.468446		-30.049862		-3.727326		43.822617		133.312288		0.338122		21.406297		60.060640		108.100448		-24.425146		10.982829		90.000210		
